# xmcd CD database file
#
# Track frame offsets:
#	150
#	14642
#	25877
#	38745
#	55635
#	63122
#	75432
#	88910
#	93950
#	111382
#	134227
#	145127
#	155570
#	172767
#	184345
#	196427
#	209750
#
# Disc length: 2947 seconds
#
# Revision: 0
# Processed by: cddbd v1.5PL3 Copyright (c) Steve Scherf et al.
# Submitted via: CDex 1.50beta9
#
DISCID=ef0b8111
DTITLE=Various Artist - A SHORT STORY
DYEAR=1996
DGENRE=New Age
TTITLE0=SPROCKET WHEEL - HUMAN RACE
TTITLE1=HUSKING BEE - QUESTION
TTITLE2=COOLER KING McQUEEN - PLEASURES OF LIFE
TTITLE3=CIGARETTE MAN - WHEN YOU WERE MINE
TTITLE4=THE PLAYMATES - NOT A SECOND TIME
TTITLE5=SCREAMING FAT RAT - I HATE
TTITLE6=DAMAGE - LOVE HARDLY HURTS
TTITLE7=SHERBET - REMEMBER THOSE DAYS
TTITLE8=OATMEAL - SO LONELY
TTITLE9=COOLER KING McQUEEN - SINKING DIVER
TTITLE10=FRUITY - LOOSE SCREWS
TTITLE11=DAMAGE - TOMORROW WILL BE SUNNY
TTITLE12=SNAIL RAMP - A PIZZA ALREADY
TTITLE13=GREEN GIANT - GIVE IT TRY
TTITLE14=CIGARETTE MAN - BEAUTIFULLY MESSED
TTITLE15=HUSKING BEE - ANCHOR
TTITLE16=SHERBET - HATE
EXTD=YEAR: 1996
EXTT0=
EXTT1=
EXTT2=
EXTT3=
EXTT4=
EXTT5=
EXTT6=
EXTT7=
EXTT8=
EXTT9=
EXTT10=
EXTT11=
EXTT12=
EXTT13=
EXTT14=
EXTT15=
EXTT16=
PLAYORDER=
